<?xml version="1.0" encoding="UTF-8" standalone="no"?>
<svg viewBox="0 0 858.4 208.17" aria-hidden="true"
    xmlns="http://www.w3.org/2000/svg"
    xmlns:xlink="http://www.w3.org/1999/xlink">
    <path fill="rgb(255, 166, 182)" d="M169.58 80.33l6.49 74.15-25.93 2.27-6.14-69.6c-1-12.06-10.55-21.54-24-20.36C106.84 67.94 98.87 79 99.92 91l6.09 69.6-25.93 2.27L74 93.28c-1.06-12.06-10.6-21.54-24-20.36-13.21 1.15-21.19 12.16-20.13 24.22l6.13 69.6L10 169 0 54.37l24.56-2.15.72 8.19c6.7-7.23 16.12-12.18 28-13.22C66.88 46 78.73 50.46 87 58.68c7.41-9.59 19-16.1 33.32-17.35 26.62-2.33 47.11 14.44 49.26 39zm204.61-47.4c34.7 0 60 26.26 60 60.28 0 33.11-25.34 59.82-60 59.82s-60-26.71-60-59.82c-.05-34.03 25.3-60.28 60-60.28zm0 94.52c20.09 0 34-14.61 34-34.25 0-20.09-13.93-34.7-34-34.7s-34 14.61-34 34.7c-.02 19.64 13.91 34.25 34 34.25zM550 109.9l-6.25 71.42-25.91-2.32 5.85-66.87c1.21-13.87-7.36-25.85-22.6-27.19-15-1.31-25.77 9-27 22.85l-5.85 66.87-25.93-2.27 10-114.63 25.7 2.25-.76 8.64c8.35-6.37 19.17-9.55 31.23-8.5 26.43 2.36 43.82 23.59 41.52 49.75zm133-15.31c0 33.33-23.74 59.82-57.31 59.82-13.93 0-26-4.8-34.7-12.56v58.45h-26V36.83h25.8V47.1c8.9-8 21-12.79 34.93-12.79 33.49.01 57.28 26.26 57.28 60.28zm-26 0c0-20.09-13.7-34.93-33.33-34.93-19.94 0-33.67 14.84-33.67 34.93 0 19.63 13.7 34.48 33.56 34.48 19.67 0 33.37-14.84 33.37-34.48zm201.4-47.12l-9.73 111.22C846 189.62 821 210.81 787.76 207.9c-26.16-2.29-44.88-18.82-49.77-41.48l24.89-6.76c2.54 12.83 12.52 22 27.08 23.22 18 1.57 31.32-9.64 32.86-27.15l1-11.37c-9.09 7-21.09 10.53-34.28 9.38-31.39-2.75-52.4-29.79-49.61-61.64 2.81-32.07 28-55.08 59.58-52.31 13.19 1.15 24.6 7 32.32 15.66l.9-10.23zm-29.82 52.63C830.2 81.67 818.2 66.87 800 65.28s-32.58 10.9-34.19 29.32c-1.55 17.74 10.45 32.54 28.64 34.13s32.55-10.9 34.14-28.64zM245.24 59.18c-34.7 0-60 26.26-60 60.28 0 33.11 25.34 59.82 60 59.82s60-26.71 60-59.82c.05-34.03-25.29-60.28-60-60.28zm0 94.52c-20.09 0-34-14.61-34-34.25 0-20.09 13.93-34.7 34-34.7s34 14.61 34 34.7c.02 19.64-13.9 34.25-34 34.25zM709.68 0a16.68 16.68 0 0117.12 17.12 17.12 17.12 0 11-34.25 0A16.68 16.68 0 01709.68 0zm13 171h-26V55.94h26z"></path>
</svg>
